<svg width="200" height="200" fill="none" xmlns="http://www.w3.org/2000/svg">
  <rect width="200" height="200" rx="100" fill="url(#paint0_linear)"/>
  <path d="M100 126.188c14.159 0 25.636-11.501 25.636-25.688V57.687C125.636 43.502 114.159 32 100 32c-14.159 0-25.636 11.5-25.636 25.688V100.5c0 14.187 11.477 25.688 25.636 25.688zm42.727-42.813h-4.272a4.276 4.276 0 0 0-4.273 4.281V100.5c0 20.015-17.222 36.075-37.597 34.084-17.759-1.736-30.767-17.732-30.767-35.61V87.657a4.276 4.276 0 0 0-4.273-4.281h-4.272A4.276 4.276 0 0 0 53 87.656v10.746c0 23.986 17.083 45.368 40.59 48.616v9.138H78.637a4.276 4.276 0 0 0-4.272 4.282v4.281A4.276 4.276 0 0 0 78.636 169h42.728a4.276 4.276 0 0 0 4.272-4.281v-4.281a4.276 4.276 0 0 0-4.272-4.282h-14.955v-9.036C129.298 143.973 147 124.288 147 100.5V87.656a4.276 4.276 0 0 0-4.273-4.281z" fill="#fff"/>
  <defs>
    <linearGradient id="paint0_linear" x1="100" x2="100" y2="200" gradientUnits="userSpaceOnUse">
      <stop stop-color="#4FACFE"/>
      <stop offset="1" stop-color="#00F2FE"/>
    </linearGradient>
  </defs>
</svg>